<svg xmlns="http://www.w3.org/2000/svg" xmlns:xlink="http://www.w3.org/1999/xlink" enable-background="new 0 0 3000 987.4" version="1.1" viewBox="0 0 3e3 987.4" xml:space="preserve">
<style type="text/css">
	.st0{fill:#E84142;}
	.st1{fill:#912829;}
	.st2{clip-path:url(#SVGID_00000005946553433222449490000012287982394711974576_);fill:#AB3031;}
	.st3{clip-path:url(#SVGID_00000119820471042420322400000000698515368366105986_);fill:#AB3031;}
	.st4{clip-path:url(#SVGID_00000072980049775100182560000006921584704336261311_);fill:#AB3031;}
	.st5{clip-path:url(#SVGID_00000013170163094468687940000001859521644411744678_);fill:#AB3031;}
	.st6{clip-path:url(#SVGID_00000040541687666980371670000012978498877720341154_);fill:#AB3031;}
	.st7{clip-path:url(#SVGID_00000002360645640172210520000003950019732761303432_);fill:#B43232;}
	.st8{clip-path:url(#SVGID_00000086678994890869235450000006858347722505584515_);fill:#B43232;}
	.st9{clip-path:url(#SVGID_00000021102067754635528640000018184778901613382313_);fill:#B43232;}
	.st10{clip-path:url(#SVGID_00000140728172559430330640000003782989878223829125_);fill:#B43232;}
	.st11{clip-path:url(#SVGID_00000062896259983982780930000011080494534890309002_);fill:#AB3031;}
	.st12{clip-path:url(#SVGID_00000013192795719131123180000012174211115828612764_);fill:#B23434;}
	.st13{clip-path:url(#SVGID_00000139254151037083974500000005533242080682567810_);fill:#B23434;}
	.st14{clip-path:url(#SVGID_00000008834159341265643750000017506705646251253181_);fill:#BF3636;}
	.st15{clip-path:url(#SVGID_00000060748731369628381330000015414637547396642495_);fill:#BF3636;}
	.st16{clip-path:url(#SVGID_00000106117882100421024260000009301658948666882487_);fill:#BF3636;}
	.st17{clip-path:url(#SVGID_00000112618861237373775270000018296460353962365374_);fill:#BF3636;}
	.st18{clip-path:url(#SVGID_00000088104892856177763870000018373328074149127596_);fill:#BF3636;}
	.st19{clip-path:url(#SVGID_00000112601925749927834600000000966602151797412494_);fill:#C73939;}
	.st20{clip-path:url(#SVGID_00000178198676624554619020000013211364834950370236_);fill:#C73939;}
	.st21{clip-path:url(#SVGID_00000121264943414017285480000004109249954124493757_);fill:#C73939;}
	.st22{clip-path:url(#SVGID_00000170985391452507583740000007896376099882985663_);fill:#C73939;}
	.st23{clip-path:url(#SVGID_00000091010835079890201830000001720333119061878656_);fill:#D33B3B;}
	.st24{clip-path:url(#SVGID_00000147193230245427943270000004179410501090671035_);fill:#DB3E3F;}
	.st25{clip-path:url(#SVGID_00000034081005842834073920000000046735227951014807_);fill:#D33B3B;}
	.st26{clip-path:url(#SVGID_00000142868202294289099780000013686997783328486791_);fill:#D33B3B;}
	.st27{clip-path:url(#SVGID_00000145765416244563936780000006470814976073738676_);fill:#DB3E3F;}
	.st28{clip-path:url(#SVGID_00000113330488689289008970000004252586780992738195_);fill:#DB3E3F;}
	.st29{clip-path:url(#SVGID_00000137091265863547991190000007549497056089908365_);fill:#DB3E3F;}
	.st30{clip-path:url(#SVGID_00000049924249423691072740000013240909093045474452_);fill:#DB3E3F;}
	.st31{clip-path:url(#SVGID_00000142166126376062620320000004436458779926325125_);fill:#E74243;}
	.st32{clip-path:url(#SVGID_00000158738289307253945930000013013838700219811456_);fill:#E74243;}
	.st33{clip-path:url(#SVGID_00000109014173470228558860000015795354468542218374_);fill:#E74243;}
	.st34{clip-path:url(#SVGID_00000154386394939548317540000004026950119257752253_);fill:#E74243;}
	.st35{fill:#E74243;}
</style>

	<rect class="st0" y="-6.9" width="3e3" height="994.3"/>


	<rect class="st1" y="-6.9" width="3e3" height="994.3"/>
	
		
			<defs>
				<rect id="a" y="-6.9" width="3e3" height="994.3"/>
			</defs>
			<clipPath id="u">
				<use xlink:href="#a"/>
			</clipPath>
			<path d="m3e3 76.1c-10.4-16.8-28.8-28.1-50-28.7-28.9-0.7-53.6 19-60.3 45.9-6.7-4.8-14.9-7.8-23.9-8-16.5-0.4-31.1 8.6-38.6 22.2-10.4-14.7-27.4-24.5-46.8-25-32.6-0.8-59.6 25-60.4 57.7-0.1 4.7 0.3 9.4 1.3 13.8-4.4-1.2-8.9-1.8-13.7-1.9-32.6-0.8-59.6 25-60.4 57.7s25 59.8 57.6 60.5l295.2 7.2v-201.4z" clip-path="url(#u)" fill="#AB3031"/>
		
		
			<defs>
				<rect id="ab" y="-6.9" width="3e3" height="994.3"/>
			</defs>
			<clipPath id="ac">
				<use xlink:href="#ab"/>
			</clipPath>
			<path d="m1119 422.5c-9.5-0.2-18.5 2-26.3 6.2 3-7 4.7-14.7 4.9-22.7 0.8-34.3-26.2-62.8-60.5-63.6-17.8-0.4-34.1 6.7-45.7 18.6-6.4-18.3-23.1-32-43.3-33.7 0-0.8 0.1-1.7 0.1-2.5 1-39.9-30.5-73.1-70.4-74.1-34.4-0.8-63.8 22.6-71.8 54.7-8-5.8-17.8-9.2-28.4-9.5-19.7-0.5-37 10.3-45.9 26.4-12.4-17.5-32.6-29.2-55.7-29.7-38.8-0.9-71 29.8-72 68.7-0.1 5.7 0.4 11.2 1.5 16.4-5.2-1.4-10.7-2.2-16.3-2.3-38.8-0.9-71 29.8-72 68.7-0.9 38.9 29.8 71.2 68.5 72.1l530.6 12.9c29.4 0.7 53.8-22.6 54.5-52 0.8-29.4-22.4-53.9-51.8-54.6" clip-path="url(#ac)" fill="#AB3031"/>
		
		
			<defs>
				<rect id="c" y="-6.9" width="3e3" height="994.3"/>
			</defs>
			<clipPath id="ag">
				<use xlink:href="#c"/>
			</clipPath>
			<path d="m463.3 227.1c-9.5-0.2-18.5 2-26.3 6.2 3-7 4.7-14.7 4.9-22.7 0.8-34.3-26.2-62.8-60.5-63.6-17.9-0.4-34.1 6.7-45.7 18.6-6.4-18.3-23.1-32-43.3-33.7 0-0.8 0.1-1.7 0.1-2.5 1-39.9-30.5-73.1-70.4-74.1-34.4-0.8-63.8 22.6-71.8 54.7-8-5.8-17.8-9.2-28.4-9.5-19.7-0.5-37 10.3-45.9 26.4-12.4-17.5-32.6-29.2-55.7-29.7-7.1-0.2-13.8 0.7-20.3 2.5v222.8l460.7 11.2c29.4 0.7 53.8-22.6 54.5-52s-22.5-53.9-51.9-54.6" clip-path="url(#ag)" fill="#AB3031"/>
		
		
			<defs>
				<rect id="b" y="-6.9" width="3e3" height="994.3"/>
			</defs>
			<clipPath id="bc">
				<use xlink:href="#b"/>
			</clipPath>
			<path d="m1498.2 494.4c-9.5-0.2-18.5 2-26.3 6.2 3-7 4.7-14.7 4.9-22.7 0.8-34.3-26.2-62.8-60.5-63.6-17.8-0.4-34.1 6.7-45.7 18.6-6.4-18.3-23.1-32-43.3-33.7 0.1-0.8 0.1-1.7 0.1-2.5 1-39.9-30.6-73.1-70.4-74.1-34.4-0.8-63.8 22.6-71.8 54.7-8-5.8-17.8-9.2-28.4-9.5-19.7-0.5-37 10.3-45.9 26.4-12.4-17.5-32.6-29.2-55.7-29.7-38.8-1-71 29.8-72 68.7-0.1 5.7 0.4 11.2 1.5 16.4-5.2-1.4-10.7-2.2-16.3-2.3-38.8-0.9-71 29.8-72 68.7-0.9 38.9 29.7 71.2 68.5 72.1l530.6 12.9c29.4 0.7 53.8-22.6 54.5-52 0.8-29.5-22.5-53.9-51.8-54.6" clip-path="url(#bc)" fill="#AB3031"/>
		
		
			<defs>
				<rect id="q" y="-6.9" width="3e3" height="994.3"/>
			</defs>
			<clipPath id="ad">
				<use xlink:href="#q"/>
			</clipPath>
			<path d="m2510 401.7c-7.4-0.2-14.5 1.3-21 4.1 0.1-1.1 0.1-2.2 0.2-3.3 0.9-38.8-29.7-71-68.4-72-9.2-0.2-17.9 1.3-26 4.3 0.2-2.1 0.3-4.2 0.4-6.3 1.1-45.4-34.8-83.2-80.1-84.3-38.3-0.9-71.2 24.6-81.1 60-9.4-6.6-20.7-10.5-33-10.8-27-0.7-50.3 16.6-58.5 41-8.7-8.2-20.3-13.3-33.1-13.7-27.6-0.7-50.6 21.2-51.2 48.9-0.1 2.9 0.1 5.8 0.5 8.5 0 0.1 0 0.1-0.1 0.2-11.7-12.5-28.2-20.5-46.6-21-36.5-0.9-66.8 28-67.7 64.6-0.9 36.5 28 66.9 64.4 67.8l498.8 12.1c27.6 0.7 50.6-21.2 51.2-48.9 0.8-27.5-21.1-50.5-48.7-51.2" clip-path="url(#ad)" fill="#AB3031"/>
		
		
			<defs>
				<rect id="r" y="-6.9" width="3e3" height="994.3"/>
			</defs>
			<clipPath id="ax">
				<use xlink:href="#r"/>
			</clipPath>
			<path d="m2668.1 233.8c-0.5-7-2.1-14.1-4.8-21-14.5-37-56.1-55.2-93-40.7-4.9 1.9-9.5 4.3-13.7 7.2-17.2-30.8-55-45-88.7-31.7-36.9 14.5-55.1 56.2-40.6 93.2 0.8 2.1 1.7 4.1 2.7 6.1-9.4-0.9-19.1 0.3-28.4 4-21.5 8.4-35.6 27.5-38.7 48.8-11.2-0.2-22.6 1.8-33.7 6.1-45.6 17.9-68.1 69.5-50.2 115.2s69.4 68.3 115 50.4c27.2-10.7 267.7-95.2 304-107.9 1.5-0.5 3.1-1 4.6-1.6 34.2-13.4 51.1-52.2 37.7-86.5-11.6-29.6-42.1-46.2-72.2-41.6" clip-path="url(#ax)" fill="#B43232"/>
		
		
			<defs>
				<rect id="bi" y="-6.9" width="3e3" height="994.3"/>
			</defs>
			<clipPath id="az">
				<use xlink:href="#bi"/>
			</clipPath>
			<path d="m589.8 403.2c-9.9-0.2-19.6 0.7-29 2.6v-0.5c0.5-21.8-12.6-40.8-31.6-48.8 0.6-3.8 0.9-7.7 1-11.6 1.2-49.5-37.9-90.7-87.4-91.9-24.8-0.6-47.6 9-64.2 25-9-14.9-25.1-25-43.8-25.5-4.4-0.1-8.7 0.3-12.8 1.3-7-54.2-52.6-96.8-108.8-98.1-59.1-1.4-108.7 43.1-114.6 101-12.1-8-26.4-12.8-41.9-13.2-22-0.5-42 7.9-56.8 22v378.8l583.6 14.2c70.3 1.7 128.7-54 130.4-124.5 1.9-70.6-53.8-129.1-124.1-130.8" clip-path="url(#az)" fill="#B43232"/>
		
		
			<defs>
				<rect id="aa" y="-6.9" width="3e3" height="994.3"/>
			</defs>
			<clipPath id="z">
				<use xlink:href="#aa"/>
			</clipPath>
			<path d="m2213.4 505.2c-8.4-0.2-16.5 0.6-24.4 2.2v-0.4c0.4-18.4-10.6-34.3-26.5-41 0.5-3.2 0.8-6.4 0.9-9.8 1-41.6-31.9-76.2-73.4-77.2-20.9-0.5-40 7.5-53.9 21-7.6-12.5-21.1-21-36.8-21.4-3.7-0.1-7.3 0.3-10.8 1.1-5.9-45.6-44.2-81.3-91.5-82.5-49.7-1.2-91.3 36.2-96.3 84.9-10.1-6.7-22.2-10.8-35.2-11.1-36.9-0.9-67.6 28.4-68.5 65.3v3.5c-16.3-17.9-39.6-29.3-65.7-30-50.8-1.2-93 39-94.2 90-0.2 7.4 0.5 14.6 2 21.5-6.8-1.8-13.9-2.8-21.3-3-50.8-1.2-93 39-94.2 89.9s39 93.2 89.8 94.4l694.9 16.9c59.1 1.4 108.2-45.4 109.6-104.6 1.3-59.1-45.4-108.3-104.5-109.7" clip-path="url(#z)" fill="#B43232"/>
		
		
			<defs>
				<rect id="g" y="-6.9" width="3e3" height="994.3"/>
			</defs>
			<clipPath id="d">
				<use xlink:href="#g"/>
			</clipPath>
			<path d="m1420 544.5c-9.9-0.2-19.6 0.7-29 2.6v-0.5c0.5-21.8-12.6-40.8-31.6-48.8 0.6-3.8 0.9-7.7 1-11.6 1.2-49.5-37.9-90.7-87.3-91.9-24.8-0.6-47.6 9-64.2 25-9-14.9-25.1-25-43.8-25.5-4.4-0.1-8.7 0.3-12.8 1.3-7-54.2-52.6-96.8-108.8-98.1-59.1-1.4-108.7 43.1-114.6 101-12-8-26.4-12.8-41.9-13.2-43.9-1.1-80.4 33.8-81.5 77.8v4.2c-19.4-21.3-47.1-34.9-78.2-35.7-60.5-1.5-110.7 46.5-112.2 107-0.2 8.8 0.6 17.4 2.4 25.6-8.1-2.1-16.6-3.4-25.3-3.6-60.5-1.5-110.7 46.4-112.1 107-1.5 60.6 46.4 110.9 106.8 112.4l826.9 20.1c70.3 1.7 128.7-54 130.4-124.5 1.8-70.3-53.8-128.9-124.2-130.6" clip-path="url(#d)" fill="#B43232"/>
		
		
			<defs>
				<rect id="p" y="-6.9" width="3e3" height="994.3"/>
			</defs>
			<clipPath id="ak">
				<use xlink:href="#p"/>
			</clipPath>
			<path d="m3e3 167.6c-34.2 7-61.2 34.5-67.3 69.3-5.3-1.6-10.9-2.5-16.8-2.7-26.7-0.7-49.9 15.1-60.1 38.1-5.8-1.9-11.9-3-18.3-3.1-35.4-0.9-64.8 27.2-65.6 62.7v1.7c-2.1-0.3-4.2-0.6-6.4-0.6-24.9-0.6-45.6 19.1-46.2 44.1s19.1 45.7 44 46.3l236.8 5.8-0.1-261.6z" clip-path="url(#ak)" fill="#AB3031"/>
		
		
			<defs>
				<rect id="bl" y="-6.9" width="3e3" height="994.3"/>
			</defs>
			<clipPath id="aw">
				<use xlink:href="#bl"/>
			</clipPath>
			<path d="m1409.4 565.3c-10.6-0.3-20.6 2.3-29.4 7 3.3-7.8 5.2-16.4 5.4-25.4 0.9-38.4-29.4-70.2-67.7-71.2-20-0.5-38.2 7.5-51.1 20.8-7.2-20.5-25.8-35.7-48.4-37.7 0.1-0.9 0.1-1.8 0.1-2.8 1.1-44.7-34.2-81.7-78.7-82.8-38.5-0.9-71.3 25.3-80.3 61.2-9-6.4-19.9-10.3-31.8-10.6-22-0.5-41.4 11.5-51.4 29.6-13.8-19.6-36.5-32.6-62.2-33.3-43.4-1.1-79.4 33.3-80.5 76.8-0.2 6.3 0.4 12.5 1.7 18.4-5.8-1.5-11.9-2.4-18.2-2.6-43.4-1.1-79.4 33.3-80.5 76.8-1 43.5 33.3 79.6 76.6 80.6l593.3 14.4c32.8 0.8 60.1-25.2 60.9-58.2s-25-60.2-57.8-61" clip-path="url(#aw)" fill="#B23434"/>
		
		
			<defs>
				<rect id="au" y="-6.9" width="3e3" height="994.3"/>
			</defs>
			<clipPath id="bf">
				<use xlink:href="#au"/>
			</clipPath>
			<path d="m876.2 542.9c-7.6-0.2-14.9 1.3-21.4 4.2 0.1-1.1 0.1-2.2 0.2-3.3 1-39.7-30.3-72.6-69.9-73.6-9.4-0.2-18.3 1.4-26.6 4.4 0.2-2.1 0.3-4.2 0.4-6.4 1.1-46.4-35.5-85-81.8-86.1-39.2-1-72.7 25.2-82.8 61.3-9.6-6.7-21.1-10.8-33.7-11.1-27.6-0.7-51.4 17-59.8 41.8-8.9-8.4-20.7-13.6-33.8-13.9-28.2-0.7-51.6 21.7-52.3 50-0.1 3 0.1 5.9 0.5 8.7v0.2c-11.9-12.8-28.8-21-47.7-21.4-37.3-0.9-68.2 28.6-69.1 66-0.9 37.3 28.6 68.4 65.8 69.3l509.7 12.4c28.2 0.7 51.7-21.7 52.3-50s-21.7-51.8-50-52.5" clip-path="url(#bf)" fill="#B23434"/>
		
		
			<defs>
				<rect id="av" y="-6.9" width="3e3" height="994.3"/>
			</defs>
			<clipPath id="k">
				<use xlink:href="#av"/>
			</clipPath>
			<path d="m2102.8 637.2c-7.5-1.4-14.9-1.2-21.8 0.5 0.3-1.1 0.5-2.2 0.7-3.3 7.5-39-17.9-76.6-56.8-84.1-9.2-1.8-18.3-1.7-27 0 0.6-2.1 1-4.1 1.4-6.2 8.8-45.6-21-89.7-66.5-98.5-38.5-7.4-75.9 12.8-91.8 46.7-8.3-8.2-19.1-14.1-31.4-16.5-27.1-5.2-53.5 8.2-65.8 31.4-7.3-9.7-18.2-16.9-31.1-19.4-27.7-5.4-54.5 12.8-59.9 40.6-0.6 2.9-0.8 5.8-0.9 8.7 0 0.1-0.1 0.1-0.1 0.2-9.7-14.6-24.9-25.5-43.5-29-36.6-7.1-72 16.9-79.1 53.6s16.9 72.2 53.5 79.2l500.6 96.8c27.7 5.4 54.5-12.8 59.9-40.6s-12.7-54.8-40.4-60.1" clip-path="url(#k)" fill="#BF3636"/>
		
		
			<defs>
				<rect id="j" y="-6.9" width="3e3" height="994.3"/>
			</defs>
			<clipPath id="ba">
				<use xlink:href="#j"/>
			</clipPath>
			<path d="m2955 446.8c-7.5-1.4-14.9-1.2-21.8 0.5 0.3-1.1 0.5-2.2 0.7-3.3 7.5-39-17.9-76.6-56.8-84.1-9.2-1.8-18.3-1.7-27 0 0.6-2 1-4.1 1.4-6.2 8.8-45.6-21-89.7-66.5-98.5-38.5-7.4-75.9 12.8-91.8 46.7-8.3-8.2-19.1-14.1-31.4-16.5-27.1-5.2-53.5 8.2-65.9 31.4-7.4-9.7-18.2-16.9-31.1-19.4-27.7-5.4-54.5 12.8-59.9 40.6-0.6 2.9-0.9 5.8-0.9 8.7 0 0.1-0.1 0.1-0.1 0.2-9.7-14.6-24.9-25.5-43.5-29-36.6-7.1-72 16.9-79.1 53.6s16.9 72.2 53.5 79.2l500.6 96.8c27.7 5.4 54.5-12.8 59.9-40.6s-12.5-54.7-40.3-60.1" clip-path="url(#ba)" fill="#BF3636"/>
		
		
			<defs>
				<rect id="w" y="-6.9" width="3e3" height="994.3"/>
			</defs>
			<clipPath id="ae">
				<use xlink:href="#w"/>
			</clipPath>
			<path d="m404.1 461.1c3.4-10 5.3-20.8 5.6-31.9 1.5-59.8-45.8-109.5-105.5-111-7.9-0.2-15.7 0.5-23.2 1.9-6-52.9-50.2-94.6-104.8-96-59.7-1.5-109.3 45.9-110.7 105.7-0.1 3.4 0 6.7 0.2 10-12.5-6.7-26.7-10.7-41.8-11-8.2-0.2-16.2 0.7-23.9 2.5v305.4c131.5 7.4 329.7 19.5 370 21.9 2.4 0.2 4.8 0.4 7.3 0.4 55.4 1.3 101.4-42.6 102.8-98.1 1.1-47.7-31.4-88.7-76-99.8" clip-path="url(#ae)" fill="#BF3636"/>
		
		
			<defs>
				<rect id="aj" y="-6.9" width="3e3" height="994.3"/>
			</defs>
			<clipPath id="x">
				<use xlink:href="#aj"/>
			</clipPath>
			<path d="m2821.7 521.5c-10-0.2-19.5 1.7-28.1 5.4 0.1-1.4 0.2-2.9 0.2-4.4 1.3-52-39.8-95.2-91.7-96.5-12.3-0.3-24 1.8-34.9 5.8 0.3-2.8 0.4-5.6 0.5-8.4 1.5-60.9-46.6-111.4-107.3-112.9-51.4-1.2-95.4 33-108.6 80.4-12.6-8.8-27.7-14.1-44.2-14.5-36.2-0.9-67.4 22.2-78.4 54.9-11.6-11-27.1-17.9-44.4-18.3-37-0.9-67.7 28.4-68.6 65.5-0.1 3.9 0.2 7.7 0.7 11.4 0 0.1 0 0.2-0.1 0.2-15.7-16.8-37.8-27.5-62.5-28.1-48.9-1.2-89.4 37.5-90.6 86.5s37.5 89.6 86.3 90.8l668.3 16.3c37 0.9 67.7-28.4 68.6-65.5 1.1-36.9-28.2-67.7-65.2-68.6" clip-path="url(#x)" fill="#BF3636"/>
		
		
			<defs>
				<rect id="h" y="-6.9" width="3e3" height="994.3"/>
			</defs>
			<clipPath id="an">
				<use xlink:href="#h"/>
			</clipPath>
			<path d="m1342 729c1.1-46-35.2-84.2-81.1-85.3-13.3-0.3-26 2.5-37.3 7.8-1.3-43.9-36.7-79.6-81.1-80.7-12.9-0.3-25.2 2.3-36.2 7.3 0-0.7 0.1-1.3 0.1-2 1.5-61.6-47.2-112.8-108.6-114.3-55.8-1.4-103.1 38.7-112.4 92.2-6.9-2.1-14.2-3.3-21.8-3.5-34.6-0.8-64.8 19.6-78 49.4-7.5-2.4-15.4-3.9-23.7-4.1-45.9-1.1-84.1 35.3-85.2 81.3v2.2c-2.7-0.5-5.5-0.7-8.3-0.8-32.3-0.8-59.2 24.8-59.9 57.2-0.8 32.4 24.8 59.3 57.1 60.1l591.3 14.4c45.9 1.2 84-35.2 85.1-81.2" clip-path="url(#an)" fill="#BF3636"/>
		
		
			<defs>
				<rect id="v" y="-6.9" width="3e3" height="994.3"/>
			</defs>
			<clipPath id="o">
				<use xlink:href="#v"/>
			</clipPath>
			<path d="m1031.7 708.5c10.6 0.3 20.4 3.3 28.8 8.4-2.9-8-4.4-16.6-4.2-25.6 0.9-38.4 32.5-68.7 70.6-67.8 19.8 0.5 37.5 9.4 49.8 23.2 8.1-20.2 27.4-34.4 49.9-35.3v-2.8c1.1-44.7 37.9-80 82.2-78.9 38.2 0.9 69.6 28.7 76.7 65 9.2-6 20.3-9.3 32.1-9.1 21.9 0.5 40.6 13.5 49.6 32 14.7-18.9 37.8-30.8 63.4-30.2 43.1 1.1 77.2 37.1 76.2 80.6-0.2 6.3-1 12.4-2.6 18.3 5.8-1.2 11.9-1.8 18.2-1.7 43.1 1.1 77.2 37.1 76.2 80.6-1.1 43.5-36.9 77.9-80 76.8l-589.6-14.3c-32.7-0.8-58.5-28.1-57.7-61 0.6-32.9 27.7-59 60.4-58.2" clip-path="url(#o)" fill="#C73939"/>
		
		
			<defs>
				<rect id="bb" y="-6.9" width="3e3" height="994.3"/>
			</defs>
			<clipPath id="n">
				<use xlink:href="#bb"/>
			</clipPath>
			<path d="m3e3 398.9c-37 4.1-69.6 23.3-91.5 51.5-15.6-32.1-47.9-54.5-85.8-55.4-20.4-0.5-39.5 5.3-55.5 15.7-12.4-62.8-66.6-110.8-132.8-112.5-76.7-1.9-140.3 59.3-142.2 136.6v4.8c-39 1.5-72.3 26.2-86.3 61.1-21.2-24-51.8-39.3-86.1-40.2-65.9-1.6-120.6 50.9-122.2 117.3-0.4 15.6 2.2 30.6 7.2 44.4-14.6-8.8-31.7-14.1-49.9-14.5-56.5-1.4-103.4 43.7-104.8 100.7s43.3 104.3 99.8 105.7l850 20.7 0.1-435.9z" clip-path="url(#n)" fill="#C73939"/>
		
		
			<defs>
				<rect id="bg" y="-6.9" width="3e3" height="994.3"/>
			</defs>
			<clipPath id="i">
				<use xlink:href="#bg"/>
			</clipPath>
			<path d="m973.3 809.7c1.2-51.6-39.5-94.4-90.9-95.6-14.9-0.4-29.1 2.8-41.8 8.8-1.5-49.2-41.2-89.2-90.9-90.4-14.4-0.3-28.2 2.6-40.5 8.2 0-0.7 0.1-1.5 0.1-2.2 1.7-69-52.8-126.3-121.7-128-62.6-1.5-115.5 43.4-125.9 103.3-7.8-2.3-15.9-3.7-24.4-3.9-38.8-0.9-72.6 22-87.4 55.4-8.4-2.7-17.3-4.3-26.6-4.6-51.5-1.2-94.2 39.5-95.4 91.1v2.4c-3-0.5-6.2-0.8-9.3-0.9-36.2-0.9-66.3 27.8-67.1 64.1-0.9 36.3 27.8 66.4 64 67.3l662.5 16.1c51.3 1.2 94.1-39.5 95.3-91.1" clip-path="url(#i)" fill="#C73939"/>
		
		
			<defs>
				<rect id="l" y="-6.9" width="3e3" height="994.3"/>
			</defs>
			<clipPath id="af">
				<use xlink:href="#l"/>
			</clipPath>
			<path d="m368.4 488c-14.9-0.4-29.1 2.8-41.8 8.8-1.5-49.2-41.2-89.2-90.9-90.4-14.4-0.3-28.2 2.6-40.5 8.2 0-0.7 0.1-1.5 0.1-2.2 1.7-69-52.8-126.3-121.7-128-27.3-0.7-52.7 7.5-73.6 21.9v359.7l363.8 8.9c51.5 1.2 94.2-39.5 95.4-91.1 1.3-51.7-39.4-94.5-90.8-95.8" clip-path="url(#af)" fill="#C73939"/>
		
		
			<defs>
				<rect id="ay" y="-6.9" width="3e3" height="994.3"/>
			</defs>
			<clipPath id="bm">
				<use xlink:href="#ay"/>
			</clipPath>
			<path d="m3e3 421.7c-6.3-1.3-12.7-2-19.3-2.2-59.7-1.5-109.3 45.9-110.7 105.7-0.1 3.4 0 6.7 0.2 10-12.5-6.7-26.7-10.7-41.8-11-34.7-0.8-65.5 17.4-82.2 45.2-15.4-6.8-32.4-10.7-50.3-11.2-73.8-1.8-135.1 56.7-136.9 130.7s56.6 135.4 130.4 137.2c27 0.7 181.7 9.7 310.7 17.3l-0.1-421.7z" clip-path="url(#bm)" fill="#D33B3B"/>
		
		
			<defs>
				<rect id="t" y="-6.9" width="3e3" height="994.3"/>
			</defs>
			<clipPath id="m">
				<use xlink:href="#t"/>
			</clipPath>
			<path d="m1518.1 987.4c0.8-65.3-50.7-119.3-115.7-120.9-9.5-0.2-18.7 0.7-27.6 2.6 2.3-8.9 3.7-18.2 3.9-27.8 1.6-66-50.2-120.8-115.7-122.4-38.9-0.9-74 17.2-96.3 45.9-13.7-28.2-42.1-47.8-75.3-48.7-17.9-0.4-34.7 4.7-48.7 13.8-10.9-55.1-58.5-97.3-116.5-98.7-67.3-1.6-123.1 52-124.8 119.8v4.2c-34.2 1.3-63.4 23-75.8 53.6-18.6-21-45.5-34.5-75.6-35.3-57.8-1.4-105.8 44.7-107.2 103-0.3 13.7 1.9 26.8 6.3 38.9-12.8-7.7-27.8-12.3-43.8-12.7-48.4-1.2-88.7 36.4-91.8 84.7h1104.6z" clip-path="url(#m)" fill="#DB3E3F"/>
		
		
			<defs>
				<rect id="e" y="-6.9" width="3e3" height="994.3"/>
			</defs>
			<clipPath id="ao">
				<use xlink:href="#e"/>
			</clipPath>
			<path d="m778.9 783.6c-15.1-0.4-29.5 2.6-42.5 8.2 0.2-2.2 0.3-4.4 0.3-6.6 1.9-78.7-60.2-144.1-138.8-146-18.6-0.4-36.4 2.7-52.8 8.8 0.4-4.2 0.7-8.4 0.8-12.7 2.2-92.2-70.5-168.7-162.5-170.9-77.8-1.9-144.4 49.9-164.4 121.7-19-13.3-42-21.4-66.9-22-54.8-1.3-102 33.7-118.6 83.1-9.5-9.1-20.9-16.4-33.5-21.2v342l774 18.8c56 1.4 102.5-43 103.9-99.2s-42.9-102.7-99-104" clip-path="url(#ao)" fill="#D33B3B"/>
		
		
			<defs>
				<rect id="be" y="-6.9" width="3e3" height="994.3"/>
			</defs>
			<clipPath id="y">
				<use xlink:href="#be"/>
			</clipPath>
			<path d="m2471.3 740.4c1.5-62-47.5-113.5-109.4-115-18-0.4-35 3.4-50.2 10.6-1.8-59.2-49.5-107.3-109.3-108.8-17.4-0.4-33.9 3.1-48.7 9.8 0-0.9 0.1-1.8 0.1-2.7 2-83-63.5-152-146.4-154-75.3-1.8-138.9 52.2-151.5 124.3-9.3-2.8-19.2-4.4-29.3-4.7-46.6-1.1-87.3 26.4-105.2 66.7-10.1-3.3-20.8-5.2-32-5.5-61.9-1.5-113.3 47.6-114.8 109.6v2.9c-3.7-0.6-7.4-1-11.2-1.1-43.6-1.1-79.7 33.5-80.8 77.1s33.4 79.9 76.9 80.9l797 19.4c61.9 1.5 113.3-47.5 114.8-109.5" clip-path="url(#y)" fill="#D33B3B"/>
		
		
			<defs>
				<rect id="bh" y="-6.9" width="3e3" height="994.3"/>
			</defs>
			<clipPath id="f">
				<use xlink:href="#bh"/>
			</clipPath>
			<path d="m1653.7 987.4c-17.6-53.8-67.5-93.3-127.2-94.7-10.1-0.2-19.9 0.6-29.4 2.4-7.6-67.2-63.7-120.2-133.1-121.9-75.8-1.8-138.8 58.3-140.6 134.2-0.1 4.3 0 8.5 0.3 12.7-15.8-8.5-33.9-13.5-53.1-14-44.1-1.1-83.2 22.1-104.4 57.4-19.6-8.6-41.2-13.6-63.9-14.2-42-1-80.8 13.3-111 37.9l762.4 0.2z" clip-path="url(#f)" fill="#DB3E3F"/>
		
		
			<defs>
				<rect id="s" y="-6.9" width="3e3" height="994.3"/>
			</defs>
			<clipPath id="am">
				<use xlink:href="#s"/>
			</clipPath>
			<path d="m1018.2 987.4c-21.8-13.5-47.4-21.5-74.9-22.2-11.7-0.3-23.1 0.8-34.1 3.1v-0.6c0.6-25.7-14.8-48.1-37.2-57.5 0.7-4.5 1.1-9 1.2-13.7 1.4-58.3-44.6-106.8-102.9-108.2-29.3-0.7-56 10.6-75.6 29.4-10.6-17.5-29.6-29.4-51.5-30-5.2-0.1-10.3 0.4-15.1 1.5-8.2-63.9-61.9-114-128.2-115.6-69.6-1.7-128 50.7-135 119-14.2-9.4-31.1-15.1-49.4-15.6-51.7-1.3-94.7 39.7-95.9 91.6v4.9c-22.9-25.1-55.5-41.1-92.1-42-60.5-1.5-112.3 39-127.5 95v60.8h1018.2z" clip-path="url(#am)" fill="#DB3E3F"/>
		
		
			<defs>
				<rect id="al" y="-6.9" width="3e3" height="994.3"/>
			</defs>
			<clipPath id="bk">
				<use xlink:href="#al"/>
			</clipPath>
			<path d="m2983.6 987.4c-8.9-53.5-54.6-94.9-110.7-96.2-17.1-0.4-33.5 3-48.2 9.3 0.2-2.5 0.3-5 0.4-7.5 2.2-89.3-68.3-163.5-157.5-165.7-21.1-0.5-41.3 3.1-59.9 10 0.5-4.8 0.8-9.6 0.9-14.4 2.5-104.6-80-191.4-184.3-193.9-88.2-2.2-163.8 56.7-186.6 138.1-21.6-15.1-47.6-24.2-75.9-24.9-62.1-1.5-115.7 38.2-134.6 94.2-19.9-18.8-46.6-30.7-76.2-31.4-63.6-1.6-116.3 48.8-117.9 112.5-0.2 6.7 0.3 13.2 1.2 19.7 0 0.1-0.1 0.3-0.1 0.4-26.9-28.8-64.8-47.2-107.3-48.3-83.9-2-153.6 64.5-155.7 148.6-0.4 17.3 2.1 33.9 7 49.5h1405.4z" clip-path="url(#bk)" fill="#DB3E3F"/>
		
		
			<defs>
				<rect id="ar" y="-6.9" width="3e3" height="994.3"/>
			</defs>
			<clipPath id="bj">
				<use xlink:href="#ar"/>
			</clipPath>
			<path d="m3e3 504.1c-1.1 0-2.2-0.1-3.4-0.1-57.4-1.4-107.4 32.5-129.3 82-12.4-4-25.6-6.4-39.3-6.7-76.1-1.8-139.3 58.5-141.2 134.7v3.6c-4.5-0.8-9.1-1.2-13.8-1.3-53.6-1.3-98 41.2-99.3 94.8-1.3 53.7 41.1 98.2 94.6 99.5l331.7 8.1v-414.6z" clip-path="url(#bj)" fill="#DB3E3F"/>
		
		
			<defs>
				<rect id="ap" y="-6.9" width="3e3" height="994.3"/>
			</defs>
			<clipPath id="bd">
				<use xlink:href="#ap"/>
			</clipPath>
			<path d="m474.7 987.4c-11.5-18-29.5-31.4-50.8-36.7 2.8-8.5 4.5-17.5 4.7-26.9 1.2-50.4-38.6-92.3-89-93.6-6.7-0.2-13.2 0.4-19.5 1.6-5.1-44.6-42.3-79.8-88.4-80.9-50.3-1.2-92.2 38.7-93.4 89.1-0.1 2.8 0 5.7 0.2 8.4-10.5-5.7-22.5-9-35.2-9.3-29.3-0.7-55.2 14.7-69.3 38.1-10.5-4.6-22-7.7-33.9-8.9v118.9h474.6z" clip-path="url(#bd)" fill="#E74243"/>
		
		
			<defs>
				<rect id="at" y="-6.9" width="3e3" height="994.3"/>
			</defs>
			<clipPath id="bn">
				<use xlink:href="#at"/>
			</clipPath>
			<path d="m2272.2 987.4c-27.1-21.9-61.4-35.4-99-36.4-12.8-0.3-25.3 0.9-37.3 3.3v-0.6c0.7-28.2-16.2-52.6-40.7-62.9 0.8-4.9 1.2-9.9 1.3-14.9 1.6-63.8-48.8-116.8-112.5-118.3-32-0.8-61.2 11.6-82.7 32.2-11.6-19.2-32.4-32.2-56.4-32.8-5.7-0.1-11.2 0.4-16.5 1.6-9-69.9-67.7-124.6-140.2-126.4-76.1-1.8-139.9 55.5-147.6 130.1-15.5-10.3-34-16.5-54-17-56.6-1.4-103.6 43.5-104.9 100.2v5.4c-25-27.4-60.7-44.9-100.7-45.9-77.9-1.9-142.5 59.8-144.4 137.8-0.3 11.3 0.8 22.4 3.1 33-10.4-2.8-21.4-4.4-32.6-4.6-25-0.6-48.6 5.3-69.2 16.2h1234.3z" clip-path="url(#bn)" fill="#E74243"/>
		
		
			<defs>
				<rect id="aq" y="-6.9" width="3e3" height="994.3"/>
			</defs>
			<clipPath id="ah">
				<use xlink:href="#aq"/>
			</clipPath>
			<path d="m3e3 806.7c-7.8-2.3-16.1-3.6-24.6-3.8-19.3-0.5-37.3 4.8-52.5 14.2-12.8-55.3-62.3-97.2-122.5-98.7-71.1-1.7-130.1 53.7-131.8 123.9-0.1 3.3 0 6.5 0.1 9.7-12.5-5.2-26.1-8.3-40.4-8.7-60.8-1.5-111.2 45.9-112.6 105.8v5.1c-9.9-4.8-20.9-7.6-32.5-7.8-30.7-0.8-57.7 16-71.2 41h588v-180.7z" clip-path="url(#ah)" fill="#E74243"/>
		
		
			<defs>
				<rect id="as" y="-6.9" width="3e3" height="994.3"/>
			</defs>
			<clipPath id="ai">
				<use xlink:href="#as"/>
			</clipPath>
			<path d="m1219.9 987.4c-16.7-12.6-37.3-20.3-59.8-20.8-8.1-0.2-16 0.5-23.6 2.1v-0.4c0.4-17.8-10.3-33.2-25.7-39.7 0.5-3.1 0.8-6.2 0.8-9.4 1-40.3-30.9-73.8-71.1-74.8-20.2-0.5-38.7 7.3-52.2 20.3-7.3-12.1-20.5-20.4-35.6-20.7-3.6-0.1-7.1 0.3-10.4 1-5.7-44.2-42.8-78.8-88.6-79.9-48.1-1.2-88.5 35.1-93.3 82.2-9.8-6.5-21.5-10.4-34.1-10.7-35.8-0.9-65.5 27.5-66.3 63.3v3.4c-15.8-17.3-38.4-28.4-63.6-29-49.2-1.2-90.1 37.8-91.3 87.1-0.2 7.2 0.5 14.1 1.9 20.9-6.6-1.7-13.5-2.8-20.6-2.9-14-0.3-27.4 2.6-39.4 8.1l772.9-0.1z" clip-path="url(#ai)" fill="#E74243"/>
		
		
			<path class="st35" d="m2759.6 987.4c-3.8-43.1-39.1-77.4-83.1-78.5-6.8-0.2-13.5 0.5-19.9 1.9 1.7-6.4 2.7-13.1 2.8-20 1.1-47.6-36.2-87.1-83.4-88.3-28.1-0.7-53.3 12.4-69.4 33.1-9.9-20.3-30.3-34.5-54.3-35.1-12.9-0.3-25 3.4-35.1 9.9-7.8-39.8-42.1-70.1-84-71.2-48.5-1.2-88.8 37.5-90 86.4v3.1c-24.7 0.9-45.7 16.6-54.6 38.7-13.4-15.2-32.8-24.9-54.5-25.4-41.7-1-76.3 32.2-77.3 74.2-0.2 9.9 1.4 19.3 4.6 28.1-9.3-5.6-20-8.9-31.6-9.2-31.9-0.8-59 21.8-65 52.3h794.8z"/>
<script xmlns=""/></svg>